<?xml version="1.0" encoding="UTF-8" standalone="no"?><!DOCTYPE svg PUBLIC "-//W3C//DTD SVG 1.1//EN" "http://www.w3.org/Graphics/SVG/1.1/DTD/svg11.dtd"><svg width="100%" height="100%" viewBox="0 0 1500 600" version="1.1" xmlns="http://www.w3.org/2000/svg" xmlns:xlink="http://www.w3.org/1999/xlink" xml:space="preserve" xmlns:serif="http://www.serif.com/" style="fill-rule:evenodd;clip-rule:evenodd;stroke-linejoin:round;stroke-miterlimit:2;"><g id="Logo-w--Subtitle" serif:id="Logo w/ Subtitle"><path d="M1312.46,205.639l19.733,9.455l-68.245,-32.698l19.733,9.455l35.898,-74.924l-19.733,-9.454l69.973,-58.478l-1.729,91.175l-19.733,-9.454l-35.897,74.923Z" style="fill:#6f7060;"/><path d="M680.482,408.225l0,20.999l0,-75.674l0,20.999l83.079,0l0,-20.999l82.972,37.837l-82.972,37.837l0,-20.999l-83.079,-0Z" style="fill:#db9f3f;"/><g transform="matrix(6.18422,0,0,6.18422,-3992.7,-3176.88)"><text x="670.553px" y="579.719px" style="font-family:'SUSE-Regular', 'SUSE';font-size:50px;fill:#aaab82;">P<tspan x="703.953px " y="579.719px ">A</tspan></text><text x="741.803px" y="579.719px" style="font-family:'SUSE-SemiBold', 'SUSE';font-weight:600;font-size:50px;fill:#db9f3f;">2</text><g transform="matrix(50,0,0,50,863.303,579.719)"></g><text x="779.303px" y="579.719px" style="font-family:'SUSE-Regular', 'SUSE';font-size:50px;fill:#6f7060;">O<tspan x="823.003px " y="579.719px ">M</tspan></text></g></g></svg>