<?xml version="1.0" encoding="UTF-8"?>
<svg version="1.1" xmlns="http://www.w3.org/2000/svg" width="1500" height="600">
<path d="M0 0 C495 0 990 0 1500 0 C1500 198 1500 396 1500 600 C1005 600 510 600 0 600 C0 402 0 204 0 0 Z " fill="#FEFEFE" transform="translate(0,0)"/>
<path d="M0 0 C0.15331495 19.73458229 -0.24450116 39.40724426 -0.92712402 59.12701416 C-1.05121996 62.74211368 -1.16986181 66.3573926 -1.2890625 69.97265625 C-1.5209241 76.98194758 -1.75846553 83.99103472 -2 91 C-3.92514596 90.20604196 -5.8494673 89.41008423 -7.7734375 88.61328125 C-8.84513184 88.17024658 -9.91682617 87.72721191 -11.02099609 87.27075195 C-13.27518286 86.30918482 -15.45332105 85.31651669 -17.625 84.1875 C-19.85558728 82.8509288 -19.85558728 82.8509288 -22 83 C-29.33946741 98.26210956 -36.57864823 113.56999488 -43.77929688 128.89794922 C-44.11814911 129.61914444 -44.45700134 130.34033966 -44.80612183 131.08338928 C-45.44711597 132.44787754 -46.08785493 133.81248571 -46.728302 135.17723083 C-48.89020819 139.78041638 -48.89020819 139.78041638 -50 142 C-50.10810614 144.83396872 -50.15491182 147.64402045 -50.15821838 150.47866821 C-50.16315636 151.36650792 -50.16809434 152.25434764 -50.17318195 153.16909158 C-50.18861248 156.16171664 -50.19693256 159.15432017 -50.20532227 162.14697266 C-50.21489643 164.28517346 -50.22490623 166.42337234 -50.23532104 168.56156921 C-50.26242623 174.38150092 -50.28340534 180.20144078 -50.30332303 186.02140093 C-50.32514804 192.09797189 -50.35255373 198.17451755 -50.37937927 204.25106812 C-50.42935341 215.76471866 -50.47427468 227.27838321 -50.51740164 238.79206121 C-50.56673373 251.89707449 -50.62166676 265.00206239 -50.67708123 278.10705113 C-50.79097372 305.07134393 -50.8975982 332.03566133 -51 359 C-59.58 359 -68.16 359 -77 359 C-77.33 299.93 -77.66 240.86 -78 180 C-82.29 189.24 -86.58 198.48 -91 208 C-93.58002598 213.47251937 -96.16033807 218.94418562 -98.75845337 224.40802002 C-100.65434223 228.39564971 -102.54560793 232.38547294 -104.4375 236.375 C-104.81940994 237.18015045 -105.20131989 237.9853009 -105.59480286 238.81484985 C-116.50678294 261.82527652 -127.30478386 284.88807744 -138 308 C-144.93 308 -151.86 308 -159 308 C-166.44657405 292.6826093 -173.81870705 277.33987794 -180.96166992 261.87792969 C-185.26551979 252.56510498 -189.62433274 243.2792482 -194 234 C-199.1103471 223.15831944 -204.20115538 212.30797158 -209.25 201.4375 C-209.77464844 200.30892578 -210.29929687 199.18035156 -210.83984375 198.01757812 C-211.57654297 196.42913086 -211.57654297 196.42913086 -212.328125 194.80859375 C-212.7499707 193.89907959 -213.17181641 192.98956543 -213.60644531 192.05249023 C-215.43435264 188.048579 -217.21241162 184.02207386 -219 180 C-219.33 239.07 -219.66 298.14 -220 359 C-228.58 359 -237.16 359 -246 359 C-246 287.72 -246 216.44 -246 143 C-234.45 143 -222.9 143 -211 143 C-201.81078725 160.08619246 -193.39710452 177.51608364 -185 195 C-184.45021484 196.1437207 -183.90042969 197.28744141 -183.33398438 198.46582031 C-180.88613645 203.55902358 -178.44182606 208.65390736 -176 213.75 C-172.93959602 220.1326607 -169.85994992 226.50597715 -166.77941895 232.87893677 C-160.80849289 245.2315973 -154.87978851 257.60367168 -149 270 C-146.05266066 266.44320115 -144.14090612 262.46128162 -142.15625 258.32421875 C-141.79077057 257.57096817 -141.42529114 256.81771759 -141.04873657 256.04164124 C-139.86164046 253.59226051 -138.68072646 251.1399567 -137.5 248.6875 C-136.67984356 246.99170775 -135.85936666 245.29607045 -135.03857422 243.60058594 C-129.4252528 231.99587836 -123.84937422 220.37323151 -118.30517578 208.73535156 C-115.89983647 203.69430748 -113.48060212 198.65993109 -111.0625 193.625 C-110.56314941 192.58504883 -110.06379883 191.54509766 -109.54931641 190.47363281 C-108.53830113 188.36813889 -107.52723326 186.26267021 -106.51611328 184.15722656 C-105.00913633 181.01902594 -103.50253409 177.88064575 -101.99609375 174.7421875 C-101.50197998 173.71279053 -101.00786621 172.68339355 -100.4987793 171.62280273 C-99.49619003 169.53384374 -98.49374962 167.4448133 -97.49145508 165.35571289 C-95.04512133 160.2573679 -92.5962057 155.16030463 -90.140625 150.06640625 C-84.03679094 137.39423709 -78.01696274 124.68471665 -72.04257202 111.95117188 C-66.73567257 100.64236304 -61.35754251 89.37062058 -55.89672852 78.13525391 C-55.39584717 77.10190918 -54.89496582 76.06856445 -54.37890625 75.00390625 C-53.72257202 73.65534546 -53.72257202 73.65534546 -53.05297852 72.27954102 C-51.91132502 69.91855629 -51.91132502 69.91855629 -51 67 C-51.53367187 66.84144531 -52.06734375 66.68289062 -52.6171875 66.51953125 C-58.74868303 64.59946085 -64.32459514 61.99765643 -70 59 C-62.80455736 51.56470928 -54.94253881 44.88224663 -46.91015625 38.375 C-43.78570211 35.82510991 -40.70027196 33.23376456 -37.625 30.625 C-37.08270752 30.16512695 -36.54041504 29.70525391 -35.98168945 29.23144531 C-34.32052232 27.82167288 -32.66012031 26.41100496 -31 25 C-23.84590109 18.91943528 -16.67190401 12.87308472 -9.38671875 6.94921875 C-7.36504473 5.29812982 -5.36570943 3.62558377 -3.375 1.9375 C-1 0 -1 0 0 0 Z " fill="#707161" transform="translate(1370,49)"/>
<path d="M0 0 C1.51013672 0.52787109 1.51013672 0.52787109 3.05078125 1.06640625 C24.52219298 9.33303618 37.75601309 24.46078069 47.13598633 44.97070312 C49.97934559 51.64886142 51.55444372 58.02790123 52.1875 65.25 C52.26572998 66.10553467 52.34395996 66.96106934 52.42456055 67.8425293 C54.58114644 93.70509748 52.46529726 120.71337748 35.1640625 141.56640625 C21.94967348 156.60413613 4.93621068 167.79034858 -15.62451172 169.17700195 C-39.15430007 169.69101213 -58.32616576 166.23226227 -76.51171875 150.390625 C-92.9432752 134.6039491 -101.65289297 112.40241145 -102.3359375 89.7421875 C-102.36604984 87.11993223 -102.37852326 84.49742579 -102.375 81.875 C-102.37445618 81.19124298 -102.37391235 80.50748596 -102.37335205 79.80300903 C-102.33398585 69.0297407 -101.57627642 59.19405897 -98 49 C-97.57589844 47.78957031 -97.15179687 46.57914062 -96.71484375 45.33203125 C-90.05919827 28.33139919 -78.87924523 15.03825798 -63 6 C-62.20980469 5.53722656 -61.41960938 5.07445312 -60.60546875 4.59765625 C-42.99838987 -5.00885942 -18.97117894 -6.66265664 0 0 Z " fill="#FEFEFE" transform="translate(971,217)"/>
<path d="M0 0 C12.73791283 10.15093082 21.25614756 23.59769861 24.24755859 39.72021484 C26.89389269 64.34665653 18.33478724 86.58552892 3.24755859 105.72021484 C2.61124512 106.53530014 1.97493164 107.35038544 1.31933594 108.19017029 C-4.71336897 115.7501508 -11.31744983 122.52916351 -18.18994141 129.31787109 C-19.36347154 130.48511295 -20.5364761 131.65288341 -21.70898438 132.82115173 C-24.76200918 135.86101846 -27.82059469 138.89521975 -30.88092041 141.92773438 C-35.80714758 146.81042348 -40.72626104 151.70025811 -45.6423645 156.59313774 C-47.35563828 158.29619795 -49.07228071 159.99580747 -50.78930664 161.69508362 C-51.83181833 162.73077249 -52.87422339 163.76656872 -53.91650391 164.80249023 C-54.82867676 165.70641006 -55.74084961 166.6103299 -56.68066406 167.54164124 C-58.78517822 169.54210641 -58.78517822 169.54210641 -59.75244141 171.72021484 C-28.73244141 171.72021484 2.28755859 171.72021484 34.24755859 171.72021484 C34.24755859 165.12021484 34.24755859 158.52021484 34.24755859 151.72021484 C37.78094638 152.4268924 39.96948089 152.89086808 43.05517578 154.33984375 C43.77027817 154.67227081 44.48538055 155.00469788 45.22215271 155.34719849 C45.9885054 155.71005951 46.75485809 156.07292053 47.54443359 156.44677734 C48.35884415 156.82679901 49.1732547 157.20682068 50.01234436 157.59835815 C52.67638711 158.84244816 55.33694705 160.09380599 57.99755859 161.34521484 C61.70341744 163.07949897 65.41097322 164.81013879 69.11865234 166.54052734 C70.05162643 166.97653259 70.98460052 167.41253784 71.94584656 167.86175537 C77.99844419 170.68598793 84.0682741 173.46855882 90.15771484 176.21240234 C90.9216153 176.55695465 91.68551575 176.90150696 92.4725647 177.25650024 C95.3737202 178.56387578 98.27535906 179.87004206 101.18127441 181.16680908 C103.14924179 182.04510974 105.11456922 182.92909596 107.07958984 183.81396484 C108.18020752 184.30574219 109.2808252 184.79751953 110.41479492 185.30419922 C112.95771054 186.57532829 115.05214584 187.92749915 117.24755859 189.72021484 C98.86055663 198.22855436 80.47264034 206.73549892 62.03659058 215.13717651 C60.65140372 215.76865018 59.26656827 216.40089532 57.8821106 217.03396606 C50.40619406 220.45104822 42.91139513 223.74268601 35.24755859 226.72021484 C35.24755859 219.79021484 35.24755859 212.86021484 35.24755859 205.72021484 C-14.25244141 205.72021484 -63.75244141 205.72021484 -114.75244141 205.72021484 C-114.75244141 177.72021484 -114.75244141 177.72021484 -111.09985352 170.90478516 C-108.68089294 168.50201416 -108.68089294 168.50201416 -106.02978516 166.29833984 C-105.13634903 165.44689392 -104.2429129 164.595448 -103.32240295 163.71820068 C-100.50435874 161.0609162 -97.60646912 158.51856161 -94.68994141 155.97021484 C-92.76749139 154.1972184 -90.85141173 152.4172887 -88.94189453 150.63037109 C-85.4357839 147.3577041 -81.89387031 144.13575335 -78.31079102 140.94775391 C-74.74494207 137.72477196 -71.5718263 134.34711318 -68.46574402 130.68505859 C-65.42162936 127.19401759 -62.07927177 124.00591364 -58.76416016 120.77490234 C-57.23701306 119.27015502 -55.71033523 117.76493133 -54.18408203 116.25927734 C-51.819392 113.93146309 -49.45187738 111.60685128 -47.07592773 109.29052734 C-34.31863369 96.8373895 -22.68729677 84.92870375 -16.75244141 67.72021484 C-16.31931641 66.58583984 -15.88619141 65.45146484 -15.43994141 64.28271484 C-13.38756142 53.64765492 -14.4614513 44.09446606 -19.93212891 34.69287109 C-24.52882127 28.47781662 -32.33345588 24.66224664 -39.77587891 23.07568359 C-54.81410254 21.27978025 -66.42052779 25.31857084 -78.61181641 34.05224609 C-84.16688587 38.47336789 -88.39246538 44.16396422 -92.75244141 49.72021484 C-96.93161794 49.20839262 -98.85954168 46.95871639 -101.73681641 44.02880859 C-102.19727356 43.5641066 -102.65773071 43.0994046 -103.13214111 42.62062073 C-104.59611952 41.13989666 -106.04930181 39.64906965 -107.50244141 38.15771484 C-108.4952359 37.1498682 -109.48871811 36.14269851 -110.48291016 35.13623047 C-112.91410613 32.67202023 -115.33573009 30.19864155 -117.75244141 27.72021484 C-108.81518088 9.36951846 -90.03808556 -3.2370613 -71.58056641 -10.53369141 C-48.45802667 -18.04066981 -19.77233584 -14.43947959 0 0 Z " fill="#DB9F40" transform="translate(728.75244140625,202.27978515625)"/>
<path d="M0 0 C101.81756757 0 101.81756757 0 124.25 20.75 C131.60027929 28.46251071 135.9487756 37.61764882 138 48 C138.27263672 49.30517578 138.27263672 49.30517578 138.55078125 50.63671875 C140.97579507 68.79269175 139.59166625 87.54890558 129 103 C117.29143789 118.25933527 101.67584533 125.72229482 83 129 C82.22135086 129.17385727 81.44270172 129.34771454 80.64045715 129.52684021 C77.91790931 130.01471034 75.42307399 130.12025079 72.65893555 130.11352539 C71.60379761 130.11340454 70.54865967 130.11328369 69.46154785 130.11315918 C68.36435425 130.10804321 67.26716064 130.10292725 66.13671875 130.09765625 C65.11952759 130.09664917 64.10233643 130.09564209 63.05432129 130.09460449 C59.26536934 130.08938419 55.4764335 130.07542293 51.6875 130.0625 C43.210625 130.041875 34.73375 130.02125 26 130 C26 158.38 26 186.76 26 216 C17.42 216 8.84 216 0 216 C0 144.72 0 73.44 0 0 Z " fill="#AAAB82" transform="translate(181,192)"/>
<path d="M0 0 C10.89 0 21.78 0 33 0 C34.34191406 3.59003906 35.68382812 7.18007812 37.06640625 10.87890625 C49.13496403 43.17129095 49.13496403 43.17129095 61.4375 75.375 C67.60379392 91.33075274 73.68851818 107.31663955 79.75 123.3125 C80.21491852 124.53918396 80.67983704 125.76586792 81.15884399 127.02972412 C83.03698965 131.98528431 84.91494514 136.94091649 86.79258728 141.89666748 C91.31902427 153.84345036 95.84907785 165.78885627 100.38439941 177.73226929 C101.20205404 179.88596417 102.01936372 182.03979004 102.83630371 184.1937561 C103.96555916 187.17115354 105.09592761 190.14812617 106.2265625 193.125 C106.55163788 193.98284592 106.87671326 194.84069183 107.2116394 195.72453308 C109.14433533 200.80871589 111.15434573 205.85035489 113.25765991 210.86669922 C114 213 114 213 114 216 C105.09 216 96.18 216 87 216 C84.95227051 210.60144043 84.95227051 210.60144043 82.90454102 205.20288086 C82.66791748 204.57905518 82.43129395 203.95522949 82.1875 203.3125 C81.28515625 200.93359375 80.3828125 198.5546875 79.48046875 196.17578125 C78.33191406 193.14777344 77.18335938 190.11976563 76 187 C72.37 177.43 68.74 167.86 65 158 C32.66 157.67 0.32 157.34 -33 157 C-33.99 160.3 -34.98 163.6 -36 167 C-36.63588468 168.84999175 -37.29060045 170.69380378 -37.97705078 172.52563477 C-38.33397003 173.48264786 -38.69088928 174.43966095 -39.05862427 175.42567444 C-39.43373138 176.42086594 -39.8088385 177.41605743 -40.1953125 178.44140625 C-40.58822479 179.49029526 -40.98113708 180.53918427 -41.38595581 181.61985779 C-42.20964506 183.81626345 -43.03495344 186.01206254 -43.86181641 188.20727539 C-45.13250967 191.58244694 -46.39666399 194.96001769 -47.66015625 198.33789062 C-48.46315621 200.47670725 -49.2665281 202.61538429 -50.0703125 204.75390625 C-50.44946808 205.76731583 -50.82862366 206.7807254 -51.2192688 207.82484436 C-51.56988373 208.75348801 -51.92049866 209.68213165 -52.28173828 210.63891602 C-52.59023712 211.4592482 -52.89873596 212.27958038 -53.21658325 213.12477112 C-54 215 -54 215 -55 216 C-56.99964982 216.08758003 -59.0023611 216.10696576 -61.00390625 216.09765625 C-62.21884766 216.09443359 -63.43378906 216.09121094 -64.68554688 216.08789062 C-65.96494141 216.07951172 -67.24433594 216.07113281 -68.5625 216.0625 C-69.84576172 216.05798828 -71.12902344 216.05347656 -72.45117188 216.04882812 C-75.63416022 216.03699545 -78.81705762 216.02051068 -82 216 C-77.82017328 203.49304766 -73.19254779 191.17169886 -68.4375 178.875 C-61.9782941 162.169604 -55.59524888 145.43652191 -49.25 128.6875 C-48.53977995 126.8133374 -47.82949849 124.93919809 -47.11921215 123.06506062 C-45.46052165 118.68848588 -43.80198181 114.31185408 -42.14375305 109.93510437 C-31.49628115 81.83280218 -20.8267465 53.73889914 -10.08825684 25.67123413 C-9.28497426 23.57159864 -8.4819915 21.47184843 -7.67932129 19.37197876 C-6.5763618 16.48715238 -5.47201456 13.60286156 -4.3671875 10.71875 C-4.03901031 9.85992722 -3.71083313 9.00110443 -3.37271118 8.11625671 C-3.0729538 7.33474747 -2.77319641 6.55323822 -2.46435547 5.74804688 C-2.20411591 5.06834839 -1.94387634 4.3886499 -1.67575073 3.68835449 C-1 2 -1 2 0 0 Z " fill="#AAAB83" transform="translate(446,192)"/>
<path d="M0 0 C1.74990234 0.061875 1.74990234 0.061875 3.53515625 0.125 C29.68006814 1.51476276 54.6872697 12.59023765 72.8515625 31.57421875 C86.62940934 47.13066036 94.98044134 64.66436301 99 85 C99.20753906 86.00933594 99.41507813 87.01867187 99.62890625 88.05859375 C104.14125819 113.83895412 101.87841448 144.17022852 89.3125 167.4375 C88.87043213 168.2637085 88.42836426 169.08991699 87.97290039 169.94116211 C73.91145518 195.75213115 52.68762193 212.0253449 25 221 C21.32972706 221.99972125 17.7826075 222.62668025 14 223 C12.91589844 223.10828125 11.83179688 223.2165625 10.71484375 223.328125 C7.14329527 223.62872044 3.5803296 223.83619407 0 224 C-1.65128906 224.08121094 -1.65128906 224.08121094 -3.3359375 224.1640625 C-29.84530186 224.84378979 -54.74140286 215.38436035 -74.58984375 197.69140625 C-85.43934475 187.24311946 -92.86888041 175.61392751 -99 162 C-99.49628906 160.906875 -99.99257813 159.81375 -100.50390625 158.6875 C-104.13160017 150.02435033 -105.72309409 141.24861756 -107 132 C-107.13277344 131.06800781 -107.26554688 130.13601563 -107.40234375 129.17578125 C-111.06162415 97.24480025 -105.81456254 64.87655199 -86 39 C-85.43539062 38.22140625 -84.87078125 37.4428125 -84.2890625 36.640625 C-80.3732102 31.36042597 -76.15508056 27.06932023 -71 23 C-70.19949219 22.36320312 -69.39898438 21.72640625 -68.57421875 21.0703125 C-48.25768845 5.59965091 -25.51972146 -0.91040255 0 0 Z M-56 45 C-56.91652344 45.77730469 -56.91652344 45.77730469 -57.8515625 46.5703125 C-71.96514494 59.3949833 -79.8014221 80.13608243 -81.30175781 98.7421875 C-81.43596715 102.58355695 -81.46750144 106.40645535 -81.4375 110.25 C-81.43479095 110.92432068 -81.43208191 111.59864136 -81.42929077 112.293396 C-81.362338 123.318938 -80.36542407 133.48579931 -77 144 C-76.62617187 145.17046875 -76.25234375 146.3409375 -75.8671875 147.546875 C-68.54401845 168.20694134 -55.12133475 182.79208045 -35.4375 192.375 C-25.55032839 196.96307692 -15.50468614 198.54298001 -4.6875 198.4375 C-3.59735596 198.43065186 -2.50721191 198.42380371 -1.3840332 198.41674805 C7.31510081 198.24440489 14.79941496 197.03909895 23 194 C24.05058594 193.63777344 25.10117187 193.27554688 26.18359375 192.90234375 C45.60905556 185.60232944 58.82570762 169.77469891 67.49609375 151.453125 C69.56119473 146.7114386 70.92530802 142.04802502 72 137 C72.20367188 136.21238281 72.40734375 135.42476563 72.6171875 134.61328125 C78.2585037 110.00014137 74.11117369 81.08759155 60.82421875 59.73046875 C51.4028366 45.62865693 39.76114067 36.22207341 24 30 C23.22052002 29.66959717 22.44104004 29.33919434 21.63793945 28.9987793 C-4.35151527 19.15862573 -35.87458521 26.90892317 -56 45 Z " fill="#707161" transform="translate(950,188)"/>
<path d="M0 0 C12.74625 -0.12375 12.74625 -0.12375 25.75 -0.25 C29.73658691 -0.30462402 29.73658691 -0.30462402 33.80371094 -0.36035156 C35.94725745 -0.37205111 38.09081296 -0.38223992 40.234375 -0.390625 C41.85883545 -0.4213208 41.85883545 -0.4213208 43.51611328 -0.45263672 C57.04096871 -0.45872077 68.02880558 4.1927379 77.8125 13.4375 C85.51514411 21.55023859 87.39445278 30.39437356 87.375 41.25 C87.37338867 42.18078369 87.37177734 43.11156738 87.37011719 44.07055664 C87.17476014 55.024916 84.07072438 63.20488642 76.8125 71.5 C64.96290301 82.0329751 52.2093562 85.35636268 36.62109375 85.1953125 C35.68656372 85.19329834 34.75203369 85.19128418 33.78918457 85.18920898 C30.33857225 85.17884047 26.88803056 85.15091883 23.4375 85.125 C15.703125 85.08375 7.96875 85.0425 0 85 C0 56.95 0 28.9 0 0 Z " fill="#FEFEFD" transform="translate(207,215)"/>
<path d="M0 0 C2.21736415 2.74603475 3.63731698 5.22922091 4.83081055 8.54516602 C5.1598941 9.44864777 5.48897766 10.35212952 5.82803345 11.2829895 C6.1773996 12.26339203 6.52676575 13.24379456 6.88671875 14.25390625 C7.44847305 15.80354568 7.44847305 15.80354568 8.02157593 17.38449097 C8.82886636 19.61356845 9.63309807 21.84375558 10.43460083 24.07492065 C12.12048044 28.76774753 13.82082078 33.4552858 15.52079773 38.14302063 C16.39089925 40.54241255 17.26028819 42.94206299 18.12898254 45.34196472 C22.37529557 57.06472268 26.70651148 68.75513107 31.0625 80.4375 C31.74114093 82.26049381 32.41977082 84.08349174 33.09838867 85.90649414 C33.72298755 87.58225253 34.34773466 89.25795568 34.97265625 90.93359375 C35.25201019 91.68333466 35.53136414 92.43307556 35.81918335 93.20553589 C36.8933646 96.08006375 37.97252373 98.93636628 39.18920898 101.75415039 C40 104 40 104 40 108 C13.6 108 -12.8 108 -40 108 C-39.22029401 103.32176407 -38.3403951 99.84131418 -36.69018555 95.49267578 C-36.4557222 94.87020462 -36.22125885 94.24773346 -35.97969055 93.60639954 C-35.2039049 91.55069237 -34.42032877 89.49804845 -33.63671875 87.4453125 C-33.08347216 85.98373904 -32.5307329 84.52197346 -31.97846985 83.06002808 C-30.51656032 79.1939886 -29.0481217 75.33046198 -27.57818604 71.46746826 C-26.13120541 67.66196772 -24.68967795 63.85440463 -23.24804688 60.046875 C-21.53872705 55.53273562 -19.82880526 51.01883211 -18.11495972 46.50640869 C-15.22383915 38.89163837 -12.3482524 31.27147974 -9.50244141 23.63964844 C-9.22245835 22.88952169 -8.9424753 22.13939495 -8.65400791 21.36653709 C-7.3186716 17.78836425 -5.98612831 14.20919644 -4.65837097 10.62820435 C-4.18617558 9.3613075 -3.71387641 8.09444933 -3.24145508 6.82763672 C-2.83107498 5.72217499 -2.42069489 4.61671326 -1.99787903 3.47775269 C-1 1 -1 1 0 0 Z " fill="#FDFDFC" transform="translate(462,219)"/>
</svg>
